# xmcd
#
# Track frame offsets: 
#        150
#        2432
#        12317
#        19135
#        30263
#        41425
#        56982
#        72024
#        85341
#        91400
#        104417
#        111427
#        124218
#        134324
#        148786
#        167696
#        174881
#        184869
#        195856
#        204121
#        213212
#        220151
#        231779
#        241560
#        258918
#        271454
#
# Disc length: 4336 seconds
#
# Revision: 0
# Processed by: cddbd v1.5.2PL0 Copyright (c) Steve Scherf et al.
# Submitted via: ExactAudioCopy v0.99pb5
#
DISCID=5910ee1a
DTITLE=Various Artist - John Lair's Renfro Valley
DYEAR=2001
DGENRE=Bluegrass
TTITLE0=Announcer
TTITLE1=Old Crow Medicine Show - Train on the Island
TTITLE2=Renfro Valley Entertainers - Renfro Valley Square Dance
TTITLE3=Bluegrass Drifters - Little Birdie
TTITLE4=Ginger Callahan - In Renfro Valley Tonight
TTITLE5=Red Foley - Take Me Back to Renfro Valley
TTITLE6=Coy Priddy - Blue Moon of Kentucky
TTITLE7=Old Crow Medicine Show - Kitty Clyde
TTITLE8=Jim Gaskin, Bobby Stone and Don Gulley - Scarlet Town
TTITLE9=Little Eller - Winking at Me
TTITLE10=Old Joe Clark - Fly Around My Daisy
TTITLE11=Fairly Holden - Keep Them Cold Icy Fingers Offa Me
TTITLE12=Wayne Combs, Pam Perry, Don Gulley and Jeff Watson - Holy Ghost
TTITLE12=Feeling
TTITLE13=Old Crow Medicine Show - Bring Me Back My Blue Eyed Boy
TTITLE14=Old Crow Medicine Show - Take Me Back to Renfro Valley
TTITLE15=Coon Creek Girls - How Many Biscuits Can You Eat
TTITLE16=Pete Stamper - A Chevy-Kaiser-Olds-Mo-Laca-Stud-War-Linco-Bak
TTITLE16=er
TTITLE17=Russ and Jo Nell Fisher - In the Valley Where Time Stands Sti
TTITLE17=ll
TTITLE18=Homer and Jethro - You Walk By
TTITLE19=Old Crow Medicine Show - Keep Them Cold Icy Fingers Offa Me
TTITLE20=Slim Miller - Devil's Dream
TTITLE21=Boyd Ingram - Huckleberry Bill
TTITLE22=Emory Martin - Turkey in the Straw
TTITLE23=Old Crow Medicine Show - Little Birdie
TTITLE24=John Lair - Goodbye
TTITLE25=videos
EXTD=
EXTT0=
EXTT1=
EXTT2=
EXTT3=
EXTT4=
EXTT5=
EXTT6=
EXTT7=
EXTT8=
EXTT9=
EXTT10=
EXTT11=
EXTT12=
EXTT13=
EXTT14=
EXTT15=
EXTT16=
EXTT17=
EXTT18=
EXTT19=
EXTT20=
EXTT21=
EXTT22=
EXTT23=
EXTT24=
EXTT25=
PLAYORDER=
